<svg width="500" height="500" viewBox="0 0 500 500" fill="none" xmlns="http://www.w3.org/2000/svg">
<path d="M210.931 325.876V280.075C210.931 261.754 218.816 246.166 234.586 233.309L323.414 158.1C337.897 146.207 345.138 133.351 345.138 119.53V105.067C345.138 95.1031 342.724 88.0321 337.897 83.8538C333.391 79.3541 325.828 77.1042 315.207 77.1042H298.31C288.011 77.1042 280.77 79.3541 276.586 83.8538C272.402 88.0321 270.31 95.1031 270.31 105.067V120.495C270.31 127.566 266.931 131.101 260.172 131.101H219.138C212.379 131.101 209 127.566 209 120.495V104.103C209 79.0326 215.92 59.748 229.759 46.2488C243.598 32.7496 263.23 26 288.655 26H325.345C350.77 26 370.402 32.7496 384.241 46.2488C398.08 59.748 405 79.0326 405 104.103V123.387C405 148.457 395.345 169.188 376.034 185.58L285.276 262.718C281.414 266.254 279.483 270.111 279.483 274.289V282.003H394.862C401.621 282.003 405 285.378 405 292.128V325.876C405 332.625 401.621 336 394.862 336H221.069C214.31 336 210.931 332.625 210.931 325.876Z" fill="black"/>
<path d="M47 18H143V481H75C59.536 481 47 468.464 47 453V18Z" fill="black"/>
<path d="M143 407H418V481H143V407Z" fill="black"/>
</svg>
